<?xml version="1.0" encoding="utf-8"?>
<!-- Generator: Adobe Illustrator 23.0.1, SVG Export Plug-In . SVG Version: 6.00 Build 0)  -->
<svg version="1.1" xmlns="http://www.w3.org/2000/svg" xmlns:xlink="http://www.w3.org/1999/xlink" x="0px" y="0px"
	 viewBox="0 0 512 512" enable-background="new 0 0 512 512" xml:space="preserve">
<g id="Text">
	<g id="Line">
		<rect id="Line_1_" x="17.79" y="400.22" width="476.42" height="7.86"/>
	</g>
	<g>
		<path d="M48.15,436.24v7.55c0,9.29-4.48,14.35-13.61,14.35h-4.31v21.82h-9.13v-58.07h13.44
			C43.67,421.88,48.15,426.94,48.15,436.24z M30.23,449.84h4.31c2.9,0,4.48-1.33,4.48-5.48v-8.71c0-4.15-1.58-5.48-4.48-5.48h-4.31
			V449.84z"/>
		<path d="M65.91,421.22c8.96,0,13.85,5.31,13.85,14.6v30.2c0,9.29-4.89,14.6-13.85,14.6s-13.85-5.31-13.85-14.6v-30.2
			C52.05,426.53,56.95,421.22,65.91,421.22z M65.91,472.32c2.9,0,4.73-1.58,4.73-5.72v-31.36c0-4.15-1.83-5.72-4.73-5.72
			c-2.9,0-4.73,1.58-4.73,5.72v31.36C61.18,470.75,63,472.32,65.91,472.32z"/>
		<path d="M98.76,421.22c8.96,0,13.85,5.31,13.85,14.6v30.2c0,9.29-4.89,14.6-13.85,14.6s-13.85-5.31-13.85-14.6v-30.2
			C84.91,426.53,89.8,421.22,98.76,421.22z M98.76,472.32c2.9,0,4.73-1.58,4.73-5.72v-31.36c0-4.15-1.83-5.72-4.73-5.72
			c-2.9,0-4.73,1.58-4.73,5.72v31.36C94.03,470.75,95.86,472.32,98.76,472.32z"/>
		<path d="M114.28,421.88h9.54l6.97,26.46l6.97-26.46h8.71l-11.53,38.83v19.25h-9.13v-19.25L114.28,421.88z"/>
		<path d="M171.77,446.36v8.3h-12.53v17.01h15.76v8.3h-24.89v-58.07h24.89v8.3h-15.76v16.18H171.77z"/>
		<path d="M192.93,421.22c8.88,0,13.44,5.31,13.44,14.6v1.83h-8.63v-2.41c0-4.15-1.66-5.72-4.56-5.72s-4.56,1.58-4.56,5.72
			c0,11.95,17.84,14.19,17.84,30.78c0,9.29-4.65,14.6-13.61,14.6s-13.61-5.31-13.61-14.6v-3.57h8.63v4.15
			c0,4.15,1.83,5.64,4.73,5.64c2.9,0,4.73-1.49,4.73-5.64c0-11.95-17.84-14.19-17.84-30.78
			C179.49,426.53,184.05,421.22,192.93,421.22z"/>
		<path d="M211.68,479.96v-58.07h9.13v24.89h10.37v-24.89h9.29v58.07h-9.29v-24.89H220.8v24.89H211.68z"/>
		<path d="M295.26,421.88h12.69v58.07h-8.63v-41.65l-6.3,41.65h-8.63l-6.8-41.07v41.07h-7.96v-58.07h12.69l6.72,41.23L295.26,421.88
			z"/>
		<path d="M334.92,479.96l-1.58-10.54h-11.2l-1.58,10.54h-8.38l9.29-58.07h13.36l9.29,58.07H334.92z M332.1,461.54l-4.4-29.37
			l-4.4,29.37H332.1z"/>
		<path d="M374.83,466.02c0,9.29-4.65,14.6-13.61,14.6s-13.61-5.31-13.61-14.6v-30.2c0-9.29,4.65-14.6,13.61-14.6
			s13.61,5.31,13.61,14.6v5.64h-8.63v-6.22c0-4.15-1.83-5.72-4.73-5.72c-2.9,0-4.73,1.58-4.73,5.72v31.36
			c0,4.15,1.83,5.64,4.73,5.64c2.9,0,4.73-1.49,4.73-5.64v-8.3h8.63V466.02z"/>
		<path d="M380.39,479.96v-58.07h9.13v24.89h10.37v-24.89h9.29v58.07h-9.29v-24.89h-10.37v24.89H380.39z"/>
		<path d="M424.94,421.88v58.07h-9.13v-58.07H424.94z"/>
		<path d="M439.7,479.96h-8.21v-58.07h11.45l9.37,34.76v-34.76h8.13v58.07h-9.38l-11.37-42.06V479.96z"/>
		<path d="M488.65,446.36v8.3h-12.53v17.01h15.76v8.3H467v-58.07h24.89v8.3h-15.76v16.18H488.65z"/>
	</g>
</g>
<g id="LOGO">
	<g id="logo">
		<g>
			<rect x="17.8" y="347.74" width="128.21" height="15.88"/>
			<rect x="366.01" y="347.74" width="128.2" height="15.88"/>
			<rect x="17.8" y="306.29" width="128.21" height="15.88"/>
			<rect x="366.01" y="306.29" width="128.2" height="15.88"/>
			<rect x="17.8" y="264.77" width="128.21" height="15.94"/>
			<polygon points="198.61,264.77 313.4,264.77 297.46,280.71 214.55,280.71 			"/>
			<rect x="366.01" y="264.77" width="128.2" height="15.94"/>
			<rect x="17.8" y="223.32" width="128.21" height="15.88"/>
			<polygon points="157.16,223.32 354.85,223.32 338.97,239.2 173.04,239.2 			"/>
			<rect x="366.01" y="223.32" width="128.2" height="15.88"/>
			<rect x="17.79" y="181.86" width="476.42" height="15.88"/>
			<rect x="17.79" y="140.39" width="476.42" height="15.88"/>
			<polygon points="197.55,98.9 213.42,114.78 17.8,114.78 17.8,98.9 			"/>
			<polygon points="494.21,98.9 494.21,114.78 298.59,114.78 314.46,98.9 			"/>
			<polygon points="156.1,57.45 171.97,73.33 17.8,73.33 17.8,57.45 			"/>
			<polygon points="494.21,57.45 494.21,73.33 340.04,73.33 355.91,57.45 			"/>
			<polygon points="114.65,16 130.52,31.88 17.8,31.88 17.8,16 			"/>
			<polygon points="494.21,16 494.21,31.88 381.49,31.88 397.36,16 			"/>
		</g>
	</g>
</g>
</svg>
